# xmcd CD database file
#
# Track frame offsets:
#	150
#	20235
#	40770
#	57553
#	83631
#	104720
#	123007
#	144048
#	153200
#	169979
#	192072
#	204019
#	223155
#	241495
#	260960
#	287093
#	298055
#	306981
#	314708
#
# Disc length: 4478 seconds
#
# Revision: 0
# Processed by: cddbd v1.5.2PL0 Copyright (c) Steve Scherf et al.
# Submitted via: CDex 1.51
#
DISCID=22117c13
DTITLE=Niqkewayz - Real Producers Make Hits, not Beats!
DYEAR=2009
DGENRE=Rhythmic Soul
TTITLE0=The Pilot
TTITLE1=Break You Off
TTITLE2=Apple Turn Over
TTITLE3=Hands Up
TTITLE4=Close My Eyes
TTITLE5=Touch You
TTITLE6=Pot Of Gold
TTITLE7=Ball Baby
TTITLE8=Freestyle
TTITLE9=My World
TTITLE10=Lord
TTITLE11=Secret
TTITLE12=Since U Been Gone
TTITLE13=Let's Get It On
TTITLE14=Triumphant
TTITLE15=F-U Symphony
TTITLE16=Down South Orchestra
TTITLE17=Distant Lover
TTITLE18=Evol Backwards
EXTD=YEAR: 2009
EXTT0=
EXTT1=
EXTT2=
EXTT3=
EXTT4=
EXTT5=
EXTT6=
EXTT7=
EXTT8=
EXTT9=
EXTT10=
EXTT11=
EXTT12=
EXTT13=
EXTT14=
EXTT15=
EXTT16=
EXTT17=
EXTT18=
PLAYORDER=
